<?xml version="1.0" standalone="no"?>
<!DOCTYPE svg PUBLIC "-//W3C//DTD SVG 20010904//EN"
 "http://www.w3.org/TR/2001/REC-SVG-20010904/DTD/svg10.dtd">
<svg version="1.0" xmlns="http://www.w3.org/2000/svg"
 width="153.000000pt" height="153.000000pt" viewBox="0 0 153.000000 153.000000"
 preserveAspectRatio="xMidYMid meet">

<g transform="translate(0.000000,153.000000) scale(0.100000,-0.100000)"
fill="#000000" stroke="none">
<path d="M763 798 c3 -161 10 -302 16 -327 7 -24 10 -46 7 -48 -3 -3 -37 3
-76 13 -70 18 -73 18 -220 -3 -83 -13 -157 -20 -165 -17 -13 5 -15 50 -15 324
0 245 3 320 13 324 6 3 1 4 -13 3 l-25 -2 0 -340 0 -340 48 -3 c26 -2 95 4
153 12 144 22 200 21 231 -4 33 -25 73 -25 106 0 31 25 87 26 231 4 58 -8 127
-14 153 -12 l48 3 0 340 0 340 -25 2 c-14 1 -19 0 -12 -3 9 -4 12 -79 12 -324
0 -276 -2 -319 -15 -324 -9 -3 -81 4 -161 16 -119 18 -154 20 -197 11 -28 -6
-53 -10 -54 -9 -13 11 -23 187 -23 394 0 178 -3 252 -11 252 -8 0 -10 -79 -6
-282z"/>
</g>
</svg>
