<?xml version="1.0" standalone="no"?>
<!DOCTYPE svg PUBLIC "-//W3C//DTD SVG 20010904//EN"
 "http://www.w3.org/TR/2001/REC-SVG-20010904/DTD/svg10.dtd">
<svg version="1.0" xmlns="http://www.w3.org/2000/svg"
 width="153.000000pt" height="153.000000pt" viewBox="0 0 153.000000 153.000000"
 preserveAspectRatio="xMidYMid meet">

<g transform="translate(0.000000,153.000000) scale(0.100000,-0.100000)"
fill="#000000" stroke="none">
<path d="M763 798 c3 -156 10 -301 16 -323 5 -22 6 -44 2 -48 -4 -4 -36 0 -69
9 -65 18 -57 19 -311 -16 -40 -5 -77 -7 -82 -4 -5 3 -9 149 -9 324 0 245 3
319 13 323 6 3 2 6 -9 6 -12 1 -25 -6 -28 -15 -8 -20 -8 -638 0 -658 8 -21 75
-21 208 -1 138 21 192 20 223 -5 33 -25 73 -25 106 0 31 25 94 26 222 5 50 -8
116 -15 147 -15 51 0 58 2 63 23 3 12 4 166 3 342 l-3 320 -25 2 c-14 1 -19 0
-12 -3 9 -4 12 -79 12 -324 0 -278 -2 -319 -16 -324 -8 -3 -79 4 -156 16 -112
17 -154 19 -199 12 -56 -10 -58 -9 -64 16 -4 14 -9 159 -12 323 -3 190 -9 297
-15 297 -7 0 -9 -95 -5 -282z"/>
</g>
</svg>
