<?xml version="1.0" standalone="no"?><!DOCTYPE svg PUBLIC "-//W3C//DTD SVG 1.1//EN" "http://www.w3.org/Graphics/SVG/1.1/DTD/svg11.dtd"><svg t="1722348413112" class="icon" viewBox="0 0 1024 1024" version="1.1" xmlns="http://www.w3.org/2000/svg" p-id="5348" xmlns:xlink="http://www.w3.org/1999/xlink" width="200" height="200"><path d="M822.55 8.52H220.37A113.63 113.63 0 0 0 106.87 122v780a113.63 113.63 0 0 0 113.5 113.5h407.38a39.8 39.8 0 0 0 19.41-5h0.06q0.82-0.46 1.61-0.95l0.32-0.21c0.44-0.28 0.87-0.56 1.3-0.86l0.5-0.35c0.36-0.26 0.72-0.52 1.07-0.79l0.6-0.47 0.92-0.75 0.65-0.56 0.83-0.75 0.64-0.61 0.78-0.78 0.35-0.35 268.3-283 0.28-0.31 0.63-0.76 0.6-0.7 0.65-0.8 0.52-0.66 0.68-0.91 0.42-0.59q0.36-0.52 0.7-1l0.31-0.49q0.37-0.59 0.73-1.2l0.21-0.37q0.38-0.67 0.73-1.35l0.13-0.26q0.38-0.74 0.72-1.5l0.07-0.15q0.36-0.8 0.69-1.62v-0.08q0.34-0.84 0.63-1.7 0.3-0.87 0.56-1.75v-0.06q0.25-0.87 0.47-1.75v-0.13c0.13-0.56 0.26-1.13 0.37-1.7v-0.26c0.1-0.53 0.19-1.06 0.27-1.59 0-0.16 0-0.32 0.06-0.49 0.06-0.46 0.12-0.93 0.17-1.4 0-0.29 0-0.58 0.07-0.87s0.06-0.7 0.08-1.06V122A113.63 113.63 0 0 0 822.55 8.52z m-154.8 866.62V766a33.54 33.54 0 0 1 33.5-33.5H803z m188.3-222.67h-154.8A113.63 113.63 0 0 0 587.75 766v169.48H220.37a33.54 33.54 0 0 1-33.5-33.5V122a33.54 33.54 0 0 1 33.5-33.5h602.18a33.54 33.54 0 0 1 33.5 33.5z" fill="#48BCFF" p-id="5349"></path><path d="M676.45 206.51H317.88a40 40 0 0 0 0 80h358.57a40 40 0 0 0 0-80zM676.45 376.84H317.88a40 40 0 0 0 0 80h358.57a40 40 0 0 0 0-80zM526.45 547.17H317.88a40 40 0 0 0 0 80h208.57a40 40 0 0 0 0-80z" fill="#A3D300" p-id="5350"></path><path d="M541.36 874.41H346.94a15 15 0 1 0 0 30h194.42a15 15 0 1 0 0-30z" fill="#48BCFF" p-id="5351"></path><path d="M291.42 889.41m-15 0a15 15 0 1 0 30 0 15 15 0 1 0-30 0Z" fill="#48BCFF" p-id="5352"></path></svg>